<?xml version="1.0" standalone="no"?><!DOCTYPE svg PUBLIC "-//W3C//DTD SVG 1.1//EN" "http://www.w3.org/Graphics/SVG/1.1/DTD/svg11.dtd"><svg t="1693292246883" class="icon" viewBox="0 0 1024 1024" version="1.1" xmlns="http://www.w3.org/2000/svg" p-id="18112" data-spm-anchor-id="a313x.search_index.0.i2.15b53a81plrIGE" xmlns:xlink="http://www.w3.org/1999/xlink" width="200" height="200"><path d="M187.733333 375.466667C85.333333 375.466667 0 290.133333 0 187.733333S85.333333 0 187.733333 0 375.466667 85.333333 375.466667 187.733333 290.133333 375.466667 187.733333 375.466667z m0-341.333334C102.4 34.133333 34.133333 102.4 34.133333 187.733333S102.4 341.333333 187.733333 341.333333 341.333333 273.066667 341.333333 187.733333 273.066667 34.133333 187.733333 34.133333zM187.733333 1024c-102.4 0-187.733333-85.333333-187.733333-187.733333S85.333333 648.533333 187.733333 648.533333s187.733333 85.333333 187.733334 187.733334S290.133333 1024 187.733333 1024z m0-341.333333C102.4 682.666667 34.133333 750.933333 34.133333 836.266667S102.4 989.866667 187.733333 989.866667s153.6-68.266667 153.6-153.6S273.066667 682.666667 187.733333 682.666667zM836.266667 580.266667c-102.4 0-187.733333-85.333333-187.733334-187.733334S733.866667 204.8 836.266667 204.8 1024 290.133333 1024 392.533333 938.666667 580.266667 836.266667 580.266667z m0-341.333334C750.933333 238.933333 682.666667 307.2 682.666667 392.533333s68.266667 153.6 153.6 153.6 153.6-68.266667 153.6-153.6S921.6 238.933333 836.266667 238.933333z" fill="#1296db" p-id="18113"></path><path d="M187.733333 580.266667c-10.24 0-17.066667-6.826667-17.066666-17.066667v-204.8c0-10.24 6.826667-17.066667 17.066666-17.066667s17.066667 6.826667 17.066667 17.066667v204.8c0 10.24-6.826667 17.066667-17.066667 17.066667zM665.6 853.333333h-238.933333c-6.826667 0-13.653333-3.413333-17.066667-10.24s0-13.653333 3.413333-17.066666l102.4-102.4c6.826667-6.826667 17.066667-6.826667 23.893334 0s6.826667 17.066667 0 23.893333L467.626667 819.2h197.973333c85.333333 0 153.6-68.266667 153.6-153.6V580.266667c0-10.24 6.826667-17.066667 17.066667-17.066667s17.066667 6.826667 17.066666 17.066667v85.333333c0 102.4-85.333333 187.733333-187.733333 187.733333z" fill="#1296db" p-id="18114"></path><path d="M529.066667 921.6c-3.413333 0-6.826667 0-10.24-3.413333l-102.4-68.266667c-6.826667-6.826667-10.24-17.066667-3.413334-23.893333 6.826667-6.826667 17.066667-10.24 23.893334-3.413334l102.4 68.266667c6.826667 6.826667 10.24 17.066667 3.413333 23.893333-3.413333 3.413333-6.826667 6.826667-13.653333 6.826667zM187.733333 580.266667c-3.413333 0-10.24 0-13.653333-3.413334l-102.4-102.4c-6.826667-6.826667-6.826667-17.066667 0-23.893333s17.066667-6.826667 23.893333 0l88.746667 88.746667L273.066667 450.56c6.826667-6.826667 17.066667-6.826667 23.893333 0s6.826667 17.066667 0 23.893333l-102.4 102.4c3.413333 3.413333-3.413333 3.413333-6.826667 3.413334z" fill="#1296db" p-id="18115"></path></svg>